/* XPM */
static char *NO[] = {
/* columns rows colors chars-per-pixel */
"64 64 176 2 ",
"   c #58534A",
".  c #5E594F",
"X  c #615D54",
"o  c #625F58",
"O  c #66635B",
"+  c #6A665D",
"@  c #6D685E",
"#  c #70695D",
"$  c #676660",
"%  c #696761",
"&  c #6D6B64",
"*  c #6E6E6A",
"=  c #716E65",
"-  c #716F68",
";  c #6F706C",
":  c #6F706B",
">  c #737067",
",  c #747065",
"<  c #757065",
"1  c #747067",
"2  c #767267",
"3  c #737066",
"4  c #737068",
"5  c #727069",
"6  c #737069",
"7  c #737169",
"8  c #71706A",
"9  c #71706B",
"0  c #71716B",
"q  c #72706A",
"w  c #73716A",
"e  c #72706B",
"r  c #72716B",
"t  c #73716B",
"y  c #72726A",
"u  c #73726A",
"i  c #73736B",
"p  c #747068",
"a  c #757168",
"s  c #747069",
"d  c #747169",
"f  c #757268",
"g  c #767268",
"h  c #74716A",
"j  c #74716B",
"k  c #74726A",
"l  c #75726A",
"z  c #74726B",
"x  c #75726B",
"c  c #75736B",
"v  c #76736A",
"b  c #76736B",
"n  c #77746B",
"m  c #77756B",
"M  c #70706C",
"N  c #70716C",
"B  c #71716C",
"V  c #70706D",
"C  c #70716D",
"Z  c #71716D",
"A  c #71726D",
"S  c #73736C",
"D  c #73726D",
"F  c #73736D",
"G  c #70706E",
"H  c #70716E",
"J  c #71716E",
"K  c #70706F",
"L  c #71716F",
"P  c #72716F",
"I  c #71726E",
"U  c #71736E",
"Y  c #71726F",
"T  c #72726E",
"R  c #72736E",
"E  c #73736E",
"W  c #72736F",
"Q  c #74726C",
"!  c #74736C",
"~  c #75736C",
"^  c #74726D",
"/  c #74736D",
"(  c #75736D",
")  c #76736C",
"_  c #76736D",
"`  c #74736E",
"'  c #75736E",
"]  c #74736F",
"[  c #73746E",
"{  c #73746F",
"}  c #74746C",
"|  c #75746C",
" . c #74746D",
".. c #75746D",
"X. c #75756D",
"o. c #76746D",
"O. c #77746D",
"+. c #76756D",
"@. c #74746E",
"#. c #75746E",
"$. c #75756E",
"%. c #74746F",
"&. c #75746F",
"*. c #77746E",
"=. c #76756E",
"-. c #77756E",
";. c #76756F",
":. c #77756F",
">. c #76766E",
",. c #77776E",
"<. c #76766F",
"1. c #77766F",
"2. c #77776F",
"3. c #74736D",
"4. c #78746B",
"5. c #78746C",
"6. c #7A756C",
"7. c #7A756D",
"8. c #78756F",
"9. c #78766E",
"0. c #79756E",
"q. c #717170",
"w. c #727270",
"e. c #737370",
"r. c #737371",
"t. c #737471",
"y. c #747470",
"u. c #757470",
"i. c #747570",
"p. c #757570",
"a. c #747571",
"s. c #767570",
"d. c #767571",
"f. c #777571",
"g. c #777670",
"h. c #777770",
"j. c #767671",
"k. c #777671",
"l. c #777771",
"z. c #757573",
"x. c #757672",
"c. c #777672",
"v. c #777772",
"b. c #767671",
"n. c #787770",
"m. c #797770",
"M. c #787671",
"N. c #797671",
"B. c #787771",
"V. c #7A7771",
"C. c #787672",
"Z. c #787772",
"A. c #787772",
"S. c #777874",
"D. c #787870",
"F. c #797870",
"G. c #787871",
"H. c #797971",
"J. c #797872",
"K. c #797972",
"L. c #797873",
"P. c #7A7973",
"I. c #797974",
"U. c #7A7974",
"Y. c #7A7A74",
"T. c #7A7A75",
"R. c #7B7A76",
"E. c #7B7B76",
"W. c #7C7B76",
"Q. c #7D7C77",
"!. c #7C7D77",
"~. c #7A7974",
"^. c #7E7E7A",
"/. c #7F807C",
"(. c #81817E",
"). c #838480",
/* pixels */
"= = 1 > = = n + = 5.c c c -.-.c = = = 1 = & = X & n c c c > = = = = 1 > = = n + = 5.c c c -.5.c = = = 1 = & = X & n c c c > = = ",
"-.m.m.D.D.-.c O & -.-.l.l.l.l.D - c 9 c c = & X & -.-.-.9 n n c -.m.m.D.D.-.c O & -.-.-.l.l.l.D - c 9 c c = & X & -.-.-.9 -.c c ",
"D.-.m.m.l.-.-.+ & D.-.-.l.l.m.l.` 9 9 c ` c = O & -.-.-.-.-.-.-.D.-.m.l.l.-.-.+ & D.-.-.l.l.m.l.D 9 9 c -.c = O & -.-.-.-.-.-.-.",
"-.-.-.-.-.-.Q.& & l.-.-.-.D -.l.-.9 - c ` 9 = O & n c -.m.-.9 9 -.-.-.l.-.-.Q.& & l.-.-.` D l.l.-.9 - c c 9 = O & -.i -.l.-.9 9 ",
"D l.l.-.-.-.I.& & ` D ` ` -.l.m.-.9 c c 9 = = O % D -.D.l.-.` 9 D l.l.-.-.-.I.& & ` D ` ` -.l.m.-.9 c c 9 = = O % D -.D.l.-.` D ",
"l.l.D.I.l.-.-.% & - D ` -.l.l.l.` c c c 9 = & X % D l.l.l.l.l.-.l.l.D.I.l.-.` % & 9 D D -.l.l.l.` c c c 9 = & X % D l.l.l.m.l.l.",
"I.I.I.Q.I.l.l.% & D ` l.m.l.-.-.` ` -.-.c - 9 O % -.-.l.I.D.D.I.I.I.I.Q.I.l.l.% & D D l.m.l.-.-.` ` -.-.c - 9 O % ` ` l.I.I.m.I.",
"& & & & & & * + & & & & & & & + + + @ + + & & X O & & & & & & % & & & & & & * + & & & & & & & + + + & + + & & X O % & * - & & % ",
"D D 9 * * * & & & & & & = & & + @ 5.5.4.c c = & & & & - 9 - 9 $ * { D * * * & & & & & = = & & + @ 5.5.4.c c = & & & & - 9 - 9 $ ",
"{ t.l.D D D * * * ; ; D l.D & % & ` 5.5.` 9 9 9 D D ` l.l.l.l.$ D l.l.D D D * * * ; ; D l.D & % & ` 5.-.` 9 9 9 D D ` l.l.l.l.% ",
"D ; D q.D * D D D q.D D l.D & @ & c c c -.` -.l.l.m.D.D.m.l.I.% * D D q.D * D D D q.D D l.D & @ & c c c -.-.-.l.l.m.m.D.m.l.I.& ",
"D ; * * ; q.D ; * D ; D q.* * & & -.m.` -.l.l.l.l.-.l.l.l.m.I.& * ; * * ; q.D D D D ; D D * * & & -.m.` -.l.l.l.l.-.l.l.-.l.I.& ",
"D * * * D q.q.t.; t.{ l.t.& * & = c 5.` ` -.-.l.l.` l.l.-.l.m.& * * * ; q.q.q.t.D l.D -.{ & * = = c 5.` ` -.-.l.l.` l.l.-.l.l.& ",
"D * q.S.q.D q.D D l.D ; D * % & & = c c c l.D.D.D.m.I.I.` -.D % * * D l.l.D D { D -.D 9 D * % & & = c c c -.D.D.D.m.I.I.` -.D % ",
"S.l.I.^.S.l.l.D * D : & * * * & = c c 5.m.Q.^.^.Q.^.^.^.I.l.l.- l.l.S.E.S.l.l.D 9 D 9 & 9 9 9 & = c c 5.m.Q.^.^.Q.^.^.^.I.l.l.9 ",
"& & O % * * & $ O - & & -.- & @ @ = = & & & - & & D -.D D D 9 % & & O % & * & $ O = & & -.& & @ @ - = & & & - & & D -.9 D D 9 & ",
"# @ @ = @ + + . @ > > = = = & & @ & & & + @ & X + = & & & & = = # @ @ = @ + + . @ 1 1 = = = & & @ & & & + @ & X + = & & & & & & ",
"D c c c c > & + = -.-.-.c -.-.` 5.D.D.I.D.-.5.+ & m.l.m.D.D.D.-.9 ` c ` c > & + = -.-.-.c -.-.c -.D.D.I.D.-.-.+ & m.l.m.m.m.m.l.",
"` 9 9 c ` c & + = -.-.-.-.-.-.-.D.-.l.m.l.D l.$ & D.-.-.-.l.l.l.` 9 9 c ` c & + = -.-.-.-.-.-.-.D.-.l.l.l.-.-.% & D.-.-.-.l.m.l.",
"-.9 - c ` 9 = @ & i i -.l.-.D 9 -.-.-.-.-.-.I.& & l.-.` ` D -.l.-.9 - c ` 9 = @ & 9 9 -.D.-.9 9 -.-.-.-.-.-.I.& & l.-.` ` D l.l.",
"-.9 9 c 9 = = & & 9 -.D.l.-.` D D l.l.l.-.` D.& & ` D ` ` -.l.m.-.9 c c 9 = = & & 9 -.D.l.-.` D D l.l.l.-.-.D.& & ` D ` ` -.l.m.",
"` c c c 9 = & + % 9 l.l.l.m.l.` -.l.D.I.l.-.-.% & 9 D D ` l.l.l.` c c c 9 = & + & 9 l.l.l.l.l.l.l.l.D.I.l.-.-.% & 9 D D ` l.m.l.",
"` -.-.-.` 9 - & & -.-.l.I.I.m.l.D.I.W.^.I.l.l.% & D ` l.l.l.-.-.` -.-.-.` - - % & -.-.m.I.I.D.I.I.I.W.Q.I.l.l.% & D -.l.l.m.-.-.",
"+ + @ + + $ & O + % & & & & & $ $ & & & % % & O + % & & & % & O + + @ + + $ & O + % & & & & & $ $ & & & % % & O + % & & & % & + ",
"@ 4.5.c 1 = = = & % & - 9 - 9 O & -.D 9 D 9 & 9 = = c 9 - = = + @ 4.5.4.1 = = = & % & - 9 - 9 O & -.D 9 D 9 * c c = c 9 - = = & ",
"= ` 5.5.` c 9 9 D D ` l.l.l.l.$ D E.I.I.I.I.l.l.t.S.I.S.l.l.` & & ` 5.5.` c 9 9 D D ` l.l.l.l.$ D ^././././.^.^.I.^.^.^.^.I.` & ",
"& c 9 c -.-.` l.l.m.m.D.m.l.I.$ D I.S.I.S.S.S.I.I.I.I.-.m.I.-.& @ c 9 c -.-.-.l.l.m.m.D.m.l.I.$ D ^.^.^.^.^.^.^.^.(./.^.(.(.-.& ",
"& -.m.` -.l.l.l.l.l.l.l.l.m.I.& l.I.l.S.S.I.S.S.l.D.l.S.I.-.l.- & -.m.` -.l.l.l.l.l.l.l.l.m.I.& -.^.^.^.^.^.^.^.^.^.^.^.(.I.m.- ",
"= c 5.` ` -.-.-.l.` l.l.-.l.m.& l.^.S.S.S.I.I.E.l.D.I.E.I.D l.- = c -.` D -.l.l.l.` l.l.l.l.m.& l.^.^.^.^.(.(.(.^.(.(.(.(.I.l.- ",
"& = c c c -.m.D.D.l.D.D.` -.D $ { S.l.I.E.S.I.S.l.D.l.l.l.l.-.& & = c c ` l.m.D.I.m.I.D.` -.D $ -.S.^.(.).^.(./.^.(./.^.^.I.-.& ",
"= c ` 5.m.Q.^.^.Q.^.^.^.I.l.l.- I.^./.).)./.^.I.D.D.D.l.D.I.m.9 = c c 5.m.Q.^.^.W.^.^.^.I.l.l.- I.^./.).).(.(.^.I.Q.^.m.I.I.-.c ",
"& = & & & & 9 & * D -.D D D 9 % = D & * D D 9 & & -.-.9 D.` 9 = & = & & & & 9 & * D -.D D D 9 % = D & - D D 9 & & n -.9 D.` 9 9 ",
"@ @ & & @ @ & X + & & & & & & & @ @ @ @ @ + +   + > = = = = & @ @ @ & & @ @ & X + & & & & & & & @ @ @ @ @ + +   + > = = = = & @ ",
"5.D.D.I.D.-.-.+ & D.-.m.D.D.D.-.9 ` c ` c 9 = X & -.-.-.` -.-.-.5.D.D.I.D.-.-.+ & D.-.m.D.D.D.-.9 ` c ` c 9 = X & -.-.-.` -.-.-.",
"D.-.m.m.l.-.-.+ & D.-.-.-.l.l.l.` 9 - c ` c = X & -.-.-.-.-.-.-.D.-.l.l.l.-.-.+ & D.-.-.-.l.l.l.` 9 - c ` c = X & -.-.-.-.-.-.-.",
"-.-.-.5.-.-.Q.& & l.-.-.` D l.l.-.9 - c ` 9 = O % n i -.m.-.D 9 -.-.-.-.-.-.Q.& & l.-.-.` D l.l.-.9 - c ` 9 = O % n i -.m.-.D 9 ",
"D l.l.-.-.-.I.& & ` D ` ` l.l.m.-.9 c c 9 = = O % D -.D.l.-.` 9 D l.l.-.-.-.I.& & ` D ` ` l.l.m.-.9 c c 9 = = O % D -.D.l.-.` D ",
"l.m.D.I.l.-.-.% & 9 D D -.l.l.l.` c c c 9 = & o % 9 l.l.l.m.l.l.l.m.D.I.l.-.-.% & 9 D D -.l.l.l.` c c c 9 = & X % 9 l.l.l.m.l.l.",
"D.I.W.Q.I.l.l.% & D ` l.m.l.-.-.` ` -.-.` - 9 O % -.-.l.I.I.m.I.D.I.W.Q.I.l.l.% & D ` l.m.l.-.-.` ` -.-.` - 9 O % -.-.l.I.I.m.I.",
"& & & & & & * + & & & & & & & + + + & + + % & X O % & & * & & % & & & & & & * + & & & & & & & + + + & + + & & X O % & & * & & % ",
"D D 9 * * * & & & & & = = & & + @ 5.5.4.c c = & & & & - 9 - 9 $ * { 9 * * * & & & & & = = & & + @ 5.5.4.c c = & & & & - 9 - 9 $ ",
"{ t.l.D D D * * * ; : D l.; & % & ` 5.-.` c 9 9 D D ` l.l.l.l.$ D l.t.{ D D D ; * D D t.l.D & % = ` 5.-.` c 9 9 D D ` l.l.l.l.% ",
"D D D q.D ; D D D q.D D l.D & @ @ c c ` -.-.-.l.l.m.D.D.m.l.I.% * D D -.D D ` l.l.` D ` -.` * + & c c ` ` ` -.l.l.m.m.D.m.l.I.& ",
"D ; * * ; q.D ; * D ; D q.* * & & -.-.-.-.-.-.-.l.l.l.l.l.m.I.& * ; 9 9 ` -.` ` ` D D D c - * & & -.m.-.-.l.l.l.l.-.-.l.-.m.I.& ",
"D * * * D q.q.t.D l.{ l.l.& * = = -.-.-.` ` -.-.-.-.-.-.-.l.l.& * D -.D D -.l.-.D ` -.` ` 9 * = = c -.` D -.l.l.l.` ` D ` l.l.& ",
"D * q.S.q.D q.D D l.D : D * % & & - 9 9 ` l.-.-.l.-.-.-.` ` D % * D -.` D -.D D ` -.l.-.` D & & & = c c 9 l.D.D.I.m.l.l.` ` D % ",
"S.l.I.^.S.l.t.D * D : & * * * & = c c 5.D.Q.I.D.I.D.l.m.I.l.l.- l.l.l.S.l.l.t.D -.l.` D D - & & = c c 5.m.Q.^.^.Q.^.^.^.I.l.l.9 ",
"& & O % & * & $ O = & & -.- & @ @ - & & & & * & & 9 D - D D 9 % & & O % * * & $ O = - & ` = & @ @ - & & & & - & & D -.9 D D 9 & ",
"@ @ @ = @ + + . @ > > = = = & & @ @ & & + @ & X + = & & & & = = @ @ @ = @ + + . @ > > > = = & & @ @ & & + @ & X + = & & & & = & ",
"D ` c ` c > & + = -.-.-.c -.-.c -.D.D.D.D.-.-.+ & m.-.l.m.D.D.-.D ` c ` c > & + = -.-.-.c -.-.c -.D.D.D.D.-.-.+ & m.-.l.m.D.D.l.",
"D 9 9 c ` c & + = -.-.-.-.-.-.-.D.-.l.l.l.-.-.% & D.-.-.l.l.m.l.D 9 9 c ` c & + = -.-.-.-.-.-.-.D.-.l.l.l.-.-.% & D.-.-.l.l.m.l.",
"-.9 9 c c 9 = + & i { -.S.-.9 9 -.-.-.-.-.-.I.& & l.-.-.-.D l.l.-.9 9 c c 9 = + & i { -.S.-.9 9 -.-.-.-.-.-.I.& & l.-.-.-.D l.l.",
"-.9 9 c 9 = = & & 9 -.D.l.-.` D D l.l.l.-.-.D.& & ` D ` ` -.l.m.-.9 9 c 9 = = & & 9 -.D.l.-.` D D l.l.l.-.-.D.& & ` D ` ` -.l.m.",
"` c c c 9 = & + % D l.l.l.m.l.` l.l.D.I.l.-.-.% & 9 D D ` l.m.l.` c c c 9 = & + % D l.l.l.m.l.D l.l.D.I.l.-.-.% & 9 D D ` l.m.m.",
"` -.-.-.` 9 - & & ` ` l.I.I.D.m.I.I.W.^.I.l.l.% & D ` l.l.m.-.-.` ` -.-.` 9 - & & ` ` l.I.I.m.l.I.I.W.^.I.l.l.% & D ` l.l.m.-.-.",
"+ + @ + + $ & + + % & * & & & $ $ & & & % % & O + % & & & % & O + + @ + + $ & + + % & * & & & $ $ & & & % % & O + % & & & % & O ",
"@ 4.5.c 9 = = & & % & - 9 - 9 O & -.D 9 D 9 - c c - c 9 - = = @ @ 4.5.c = = = & & % & - 9 - 9 O & -.D 9 D 9 - c c - c 9 - = = & ",
"= ` 5.5.` c 9 9 D D ` l.l.l.l.$ D ^./.(././.^.^.I.^.^.^.^.I.` & & -.5.5.` c 9 9 D D ` l.l.l.l.$ D ^./.(././.^.^.I.^.^.^.^.I.` & ",
"& c 9 c -.` ` l.l.m.m.D.m.l.I.$ D ^.^.^.^.^.^.^.^././.^.(.(.l.& @ c 9 c -.` ` l.l.m.m.D.m.l.I.$ D ^.^.^.^.^.^.^.^././.^.(.(.-.& ",
"& -.m.` -.l.l.l.l.l.l.m.-.m.I.& -.^.^.^.^.^.^.^.^.^.^.^.(.I.D.= & -.m.` -.l.l.l.l.l.l.m.l.m.I.& -.^.^.^.^.^.^.^.^.^.^.^.(.I.m.- ",
"= c 5.` ` -.l.-.l.` l.l.-.l.l.& l.^.^.^.^.(.(.(.^.(.(.(.(.I.l.- = c -.` ` -.l.l.l.` l.l.-.l.l.& l.^.^.^.^.(.(.(.^.(.(.(.(.I.l.- ",
"& = c c c l.m.D.I.m.I.D.` ` D $ -.S.^.).).^././.^.(./.^.^.I.-.& & = c c c -.m.D.I.m.I.D.` ` D $ -.S.^.).).^././.^.(./.^.^.I.-.& ",
"= c c 5.m.W.^.^.Q.^.^.^.I.l.l.- I.^./.).).(.(.Q.I.Q.^.m.I.D.5.9 = c c 5.m.W.^.^.Q.^.^.^.I.l.l.- I.^./.).).(.(.Q.I.Q.^.m.I.I.5.c ",
"& - & = & * 9 * & D ` D D * * $ & D & * { { * & & c ` 9 D.` 9 = & - & = & * 9 * & D ` D D * * $ & D & * { { * & & c ` 9 D.` 9 = "
};
